<svg version="1.1" xmlns="http://www.w3.org/2000/svg" xmlns:xlink="http://www.w3.org/1999/xlink" width="800px" height="800px" viewBox="0,0,256,256"><g fill="#1f9dac" fill-rule="nonzero" stroke="none" stroke-width="1" stroke-linecap="butt" stroke-linejoin="miter" stroke-miterlimit="10" stroke-dasharray="" stroke-dashoffset="0" font-family="none" font-weight="none" font-size="none" text-anchor="none" style="mix-blend-mode: normal"><g transform="translate(-0.01614,0) scale(10.66667,10.66667)"><path d="M11.92,19.58l3.92,-5.58h4.16c1.10457,0 2,-0.89543 2,-2c0,-1.10457 -0.89543,-2 -2,-2h-4.16l-3.92,-5.58c-0.18668,-0.2622 -0.48814,-0.41851 -0.81,-0.42h-0.93c-0.29542,-0.00381 -0.5774,0.12321 -0.77031,0.34698c-0.19291,0.22377 -0.27699,0.52139 -0.22969,0.81302l0.82,4.84h-3.62l-1.7,-1.71c-0.18402,-0.1759 -0.42567,-0.27896 -0.68,-0.29h-1c-0.34659,0.00105 -0.66793,0.18149 -0.84924,0.47688c-0.18131,0.29539 -0.19673,0.6636 -0.04076,0.97312l1.27,2.55l-1.27,2.55c-0.15597,0.30952 -0.14055,0.67773 0.04076,0.97312c0.18131,0.29539 0.50264,0.47583 0.84924,0.47688h1c0.26477,-0.00368 0.51837,-0.10727 0.71,-0.29l1.67,-1.71h3.62l-0.81,4.84c-0.0473,0.29163 0.03679,0.58925 0.22969,0.81302c0.19291,0.22377 0.47489,0.35079 0.77031,0.34698h0.93c0.31832,-0.00468 0.61539,-0.16064 0.8,-0.42z" id="primary"></path></g></g></svg>