<svg version="1.1" xmlns="http://www.w3.org/2000/svg" xmlns:xlink="http://www.w3.org/1999/xlink" width="800px" height="800px" viewBox="0,0,256,256"><g fill="#1f9dac" fill-rule="nonzero" stroke="none" stroke-width="1" stroke-linecap="butt" stroke-linejoin="miter" stroke-miterlimit="10" stroke-dasharray="" stroke-dashoffset="0" font-family="none" font-weight="none" font-size="none" text-anchor="none" style="mix-blend-mode: normal"><g transform="translate(0.05333,0) scale(10.66667,10.66667)"><path d="M20.69,12.29c-0.04,0.09 -0.09,0.17 -0.16,0.24l-2.5,2.5c-0.15,0.15 -0.34,0.22 -0.53,0.22c-0.19,0 -0.38,-0.07 -0.53,-0.22c-0.29,-0.29 -0.29,-0.77 0,-1.06l1.22,-1.22h-5.44v5.44l1.22,-1.22c0.29,-0.29 0.77,-0.29 1.06,0c0.29,0.29 0.29,0.77 0,1.06l-2.5,2.5c-0.07,0.07 -0.15,0.12 -0.24,0.16c-0.09,0.04 -0.19,0.06 -0.29,0.06c-0.1,0 -0.2,-0.02 -0.29,-0.06c-0.09,-0.04 -0.17,-0.09 -0.24,-0.16l-2.5,-2.5c-0.29,-0.29 -0.29,-0.77 0,-1.06c0.29,-0.29 0.77,-0.29 1.06,0l1.22,1.22v-5.44h-5.44l1.22,1.22c0.29,0.29 0.29,0.77 0,1.06c-0.15,0.15 -0.34,0.22 -0.53,0.22c-0.19,0 -0.38,-0.07 -0.53,-0.22l-2.5,-2.5c-0.07,-0.07 -0.12,-0.15 -0.16,-0.24c-0.08,-0.18 -0.08,-0.39 0,-0.57c0.04,-0.09 0.09,-0.17 0.16,-0.24l2.5,-2.5c0.29,-0.29 0.77,-0.29 1.06,0c0.29,0.29 0.29,0.77 0,1.06l-1.22,1.22h5.44v-5.45l-1.22,1.22c-0.29,0.29 -0.77,0.29 -1.06,0c-0.29,-0.29 -0.29,-0.77 0,-1.06l2.5,-2.5c0.07,-0.07 0.15,-0.12 0.24,-0.16c0.18,-0.08 0.39,-0.08 0.57,0c0.09,0.04 0.17,0.09 0.24,0.16l2.5,2.5c0.29,0.29 0.29,0.77 0,1.06c-0.15,0.15 -0.34,0.22 -0.53,0.22c-0.19,0 -0.38,-0.07 -0.53,-0.22l-1.22,-1.22v5.44h5.44l-1.22,-1.22c-0.29,-0.29 -0.29,-0.77 0,-1.06c0.29,-0.29 0.77,-0.29 1.06,0l2.5,2.5c0.07,0.07 0.12,0.15 0.16,0.24c0.08,0.18 0.08,0.39 0,0.57z"></path></g></g></svg>