<svg version="1.1" xmlns="http://www.w3.org/2000/svg" xmlns:xlink="http://www.w3.org/1999/xlink" width="800px" height="800px" viewBox="0,0,256,256"><g fill="#1f9dac" fill-rule="nonzero" stroke="none" stroke-width="1" stroke-linecap="butt" stroke-linejoin="miter" stroke-miterlimit="10" stroke-dasharray="" stroke-dashoffset="0" font-family="none" font-weight="none" font-size="none" text-anchor="none" style="mix-blend-mode: normal"><g transform="scale(0.62558,0.62558)"><path d="M115.921,208.425c0,-5.523 4.477,-10 10,-10h56.421c5.523,0 10,4.477 10,10c0,5.523 -4.477,10 -10,10h-56.421c-5.523,0 -10,-4.477 -10,-10zM125.921,263.263h56.421c5.523,0 10,-4.477 10,-10c0,-5.523 -4.477,-10 -10,-10h-56.421c-5.523,0 -10,4.477 -10,10c0,5.523 4.477,10 10,10zM158.121,103.727c0,-19.248 20.421,-34.326 46.49,-34.326c26.068,0 46.488,15.078 46.488,34.326c0,19.248 -20.42,34.326 -46.488,34.326c-26.069,0 -46.49,-15.078 -46.49,-34.326zM178.121,103.727c0,6.762 11.329,14.326 26.49,14.326c15.16,0 26.488,-7.563 26.488,-14.326c0,-6.763 -11.328,-14.326 -26.488,-14.326c-15.162,0 -26.49,7.564 -26.49,14.326zM125.921,184.903h56.421c5.523,0 10,-4.477 10,-10c0,-5.523 -4.477,-10 -10,-10h-56.421c-5.523,0 -10,4.477 -10,10c0,5.523 4.477,10 10,10zM283.302,340.568h-32.818c-5.522,0 -10,4.477 -10,10c0,5.523 4.478,10 10,10h32.818c5.522,0 10,-4.477 10,-10c0,-5.523 -4.478,-10 -10,-10zM342.929,10v389.221c0,5.523 -4.478,10 -10,10h-256.637c-5.523,0 -10,-4.477 -10,-10v-389.221c0,-5.523 4.477,-10 10,-10h36.662c5.523,0 10,4.477 10,10v14.327h16.662v-14.327c0,-5.523 4.477,-10 10,-10h36.663c5.523,0 10,4.477 10,10v14.327h16.663v-14.327c0,-5.523 4.478,-10 10,-10h36.662c5.522,0 10,4.477 10,10v14.327h16.663v-14.327c0,-5.523 4.478,-10 10,-10h36.661c5.523,0 10.001,4.477 10.001,10zM322.929,20h-16.661v14.327c0,5.523 -4.478,10 -10,10h-36.663c-5.522,0 -10,-4.477 -10,-10v-14.327h-16.662v14.327c0,5.523 -4.478,10 -10,10h-36.663c-5.523,0 -10,-4.477 -10,-10v-14.327h-16.663v14.327c0,5.523 -4.477,10 -10,10h-36.662c-5.523,0 -10,-4.477 -10,-10v-14.327h-16.663v369.221h236.637zM283.302,198.425h-32.818c-5.522,0 -10,4.477 -10,10c0,5.523 4.478,10 10,10h32.818c5.522,0 10,-4.477 10,-10c0,-5.523 -4.478,-10 -10,-10zM283.302,243.263h-32.818c-5.522,0 -10,4.477 -10,10c0,5.523 4.478,10 10,10h32.818c5.522,0 10,-4.477 10,-10c0,-5.523 -4.478,-10 -10,-10zM283.302,291.916h-157.381c-5.523,0 -10,4.477 -10,10c0,5.523 4.477,10 10,10h157.381c5.522,0 10,-4.477 10,-10c0,-5.523 -4.478,-10 -10,-10z"></path></g></g></svg>