<svg version="1.1" xmlns="http://www.w3.org/2000/svg" xmlns:xlink="http://www.w3.org/1999/xlink" width="448px" height="512px" viewBox="0,0,224,256"><g fill="#1f9dac" fill-rule="nonzero" stroke="none" stroke-width="1" stroke-linecap="butt" stroke-linejoin="miter" stroke-miterlimit="10" stroke-dasharray="" stroke-dashoffset="0" font-family="none" font-weight="none" font-size="none" text-anchor="none" style="mix-blend-mode: normal"><g transform="scale(0.5,0.5)"><path d="M416,0c-16,0 -128,32 -128,176v112c0,35.3 28.7,64 64,64h32v128c0,17.7 14.3,32 32,32c17.7,0 32,-14.3 32,-32v-128v-112v-208c0,-17.7 -14.3,-32 -32,-32zM64,16c0,-8.2 -6.1,-15 -14.3,-15.9c-8.2,-0.9 -15.5,4.5 -17.3,12.4l-30.3,136.3c-1.4,6.3 -2.1,12.7 -2.1,19.1c0,45.9 35.1,83.6 80,87.7v224.4c0,17.7 14.3,32 32,32c17.7,0 32,-14.3 32,-32v-224.4c44.9,-4.1 80,-41.8 80,-87.7c0,-6.4 -0.7,-12.8 -2.1,-19.1l-30.3,-136.3c-1.8,-8 -9.3,-13.3 -17.4,-12.4c-8.1,0.9 -14.2,7.7 -14.2,15.9v134.2c0,5.4 -4.4,9.8 -9.8,9.8c-5.1,0 -9.3,-3.9 -9.8,-9l-12.5,-136.4c-0.7,-8.3 -7.6,-14.6 -15.9,-14.6c-8.3,0 -15.2,6.3 -15.9,14.6l-12.4,136.4c-0.5,5.1 -4.7,9 -9.8,9c-5.4,0 -9.8,-4.4 -9.8,-9.8v-134.2zM112.3,168h-0.3h-0.3l0.3,-0.7z"></path></g></g></svg>