<svg version="1.1" xmlns="http://www.w3.org/2000/svg" xmlns:xlink="http://www.w3.org/1999/xlink" width="576px" height="512px" viewBox="0,0,256,227.54688"><g fill="#1f9dac" fill-rule="nonzero" stroke="none" stroke-width="1" stroke-linecap="butt" stroke-linejoin="miter" stroke-miterlimit="10" stroke-dasharray="" stroke-dashoffset="0" font-family="none" font-weight="none" font-size="none" text-anchor="none" style="mix-blend-mode: normal"><g transform="translate(0,-0.00434) scale(0.44444,0.44444)"><path d="M288,0c134.4,0 224,35.2 224,80v16v32c17.7,0 32,14.3 32,32v64c0,17.7 -14.3,32 -32,32v160c0,17.7 -14.3,32 -32,32v32c0,17.7 -14.3,32 -32,32h-32c-17.7,0 -32,-14.3 -32,-32v-32h-192v32c0,17.7 -14.3,32 -32,32h-32c-17.7,0 -32,-14.3 -32,-32v-32c-17.7,0 -32,-14.3 -32,-32v-160c-17.7,0 -32,-14.3 -32,-32v-64c0,-17.7 14.3,-32 32,-32v0v-32v0v-16c0,-44.8 89.6,-80 224,-80zM128,160v96c0,17.7 14.3,32 32,32h112v-160h-112c-17.7,0 -32,14.3 -32,32zM304,288h112c17.7,0 32,-14.3 32,-32v-96c0,-17.7 -14.3,-32 -32,-32h-112zM144,400c17.67311,0 32,-14.32689 32,-32c0,-17.67311 -14.32689,-32 -32,-32c-17.67311,0 -32,14.32689 -32,32c0,17.67311 14.32689,32 32,32zM432,400c17.67311,0 32,-14.32689 32,-32c0,-17.67311 -14.32689,-32 -32,-32c-17.67311,0 -32,14.32689 -32,32c0,17.67311 14.32689,32 32,32zM384,80c0,-8.8 -7.2,-16 -16,-16h-160c-8.8,0 -16,7.2 -16,16c0,8.8 7.2,16 16,16h160c8.8,0 16,-7.2 16,-16z"></path></g></g></svg>