<svg version="1.1" xmlns="http://www.w3.org/2000/svg" xmlns:xlink="http://www.w3.org/1999/xlink" width="512px" height="512px" viewBox="0,0,256,256"><g fill="#1f9dac" fill-rule="nonzero" stroke="none" stroke-width="1" stroke-linecap="butt" stroke-linejoin="miter" stroke-miterlimit="10" stroke-dasharray="" stroke-dashoffset="0" font-family="none" font-weight="none" font-size="none" text-anchor="none" style="mix-blend-mode: normal"><g transform="scale(0.5,0.5)"><path d="M149.1,64.8l-10.4,31.2h-74.7c-35.3,0 -64,28.7 -64,64v256c0,35.3 28.7,64 64,64h384c35.3,0 64,-28.7 64,-64v-256c0,-35.3 -28.7,-64 -64,-64h-74.7l-10.4,-31.2c-6.5,-19.6 -24.8,-32.8 -45.5,-32.8h-122.8c-20.7,0 -39,13.2 -45.5,32.8zM256,192c53.01934,0 96,42.98066 96,96c0,53.01934 -42.98066,96 -96,96c-53.01934,0 -96,-42.98066 -96,-96c0,-53.01934 42.98066,-96 96,-96z"></path></g></g></svg>