<svg version="1.1" xmlns="http://www.w3.org/2000/svg" xmlns:xlink="http://www.w3.org/1999/xlink" width="640px" height="512px" viewBox="0,0,256,204.79688"><g fill="#1f9dac" fill-rule="nonzero" stroke="none" stroke-width="1" stroke-linecap="butt" stroke-linejoin="miter" stroke-miterlimit="10" stroke-dasharray="" stroke-dashoffset="0" font-family="none" font-weight="none" font-size="none" text-anchor="none" style="mix-blend-mode: normal"><g transform="translate(0,-0.00156) scale(0.4,0.4)"><path d="M144,0c44.18278,0 80,35.81722 80,80c0,44.18278 -35.81722,80 -80,80c-44.18278,0 -80,-35.81722 -80,-80c0,-44.18278 35.81722,-80 80,-80zM512,0c44.18278,0 80,35.81722 80,80c0,44.18278 -35.81722,80 -80,80c-44.18278,0 -80,-35.81722 -80,-80c0,-44.18278 35.81722,-80 80,-80zM0,298.7c0,-58.9 47.8,-106.7 106.7,-106.7h42.7c15.9,0 31,3.5 44.6,9.7c-1.3,7.2 -1.9,14.7 -1.9,22.3c0,38.2 16.8,72.5 43.3,96c-0.2,0 -0.4,0 -0.7,0h-213.4c-11.7,0 -21.3,-9.6 -21.3,-21.3zM405.3,320c-0.2,0 -0.4,0 -0.7,0c26.6,-23.5 43.3,-57.8 43.3,-96c0,-7.6 -0.7,-15 -1.9,-22.3c13.6,-6.3 28.7,-9.7 44.6,-9.7h42.7c58.9,0 106.7,47.8 106.7,106.7c0,11.8 -9.6,21.3 -21.3,21.3zM224,224c0,-53.01934 42.98066,-96 96,-96c53.01934,0 96,42.98066 96,96c0,53.01934 -42.98066,96 -96,96c-53.01934,0 -96,-42.98066 -96,-96zM128,485.3c0,-73.6 59.7,-133.3 133.3,-133.3h117.4c73.6,0 133.3,59.7 133.3,133.3c0,14.7 -11.9,26.7 -26.7,26.7h-330.6c-14.7,0 -26.7,-11.9 -26.7,-26.7z"></path></g></g></svg>