<svg version="1.1" xmlns="http://www.w3.org/2000/svg" xmlns:xlink="http://www.w3.org/1999/xlink" width="512px" height="512px" viewBox="0,0,256,256"><g fill="#1f9dac" fill-rule="nonzero" stroke="none" stroke-width="1" stroke-linecap="butt" stroke-linejoin="miter" stroke-miterlimit="10" stroke-dasharray="" stroke-dashoffset="0" font-family="none" font-weight="none" font-size="none" text-anchor="none" style="mix-blend-mode: normal"><g transform="scale(0.5,0.5)"><path d="M0,32c0,-17.7 14.3,-32 32,-32h448c17.7,0 32,14.3 32,32c0,17.7 -14.3,32 -32,32v384c17.7,0 32,14.3 32,32c0,17.7 -14.3,32 -32,32h-176v-48c0,-26.5 -21.5,-48 -48,-48c-26.5,0 -48,21.5 -48,48v48h-176c-17.7,0 -32,-14.3 -32,-32c0,-17.7 14.3,-32 32,-32v-384c-17.7,0 -32,-14.3 -32,-32zM96,112v32c0,8.8 7.2,16 16,16h32c8.8,0 16,-7.2 16,-16v-32c0,-8.8 -7.2,-16 -16,-16h-32c-8.8,0 -16,7.2 -16,16zM240,96c-8.8,0 -16,7.2 -16,16v32c0,8.8 7.2,16 16,16h32c8.8,0 16,-7.2 16,-16v-32c0,-8.8 -7.2,-16 -16,-16zM352,112v32c0,8.8 7.2,16 16,16h32c8.8,0 16,-7.2 16,-16v-32c0,-8.8 -7.2,-16 -16,-16h-32c-8.8,0 -16,7.2 -16,16zM112,192c-8.8,0 -16,7.2 -16,16v32c0,8.8 7.2,16 16,16h32c8.8,0 16,-7.2 16,-16v-32c0,-8.8 -7.2,-16 -16,-16zM224,208v32c0,8.8 7.2,16 16,16h32c8.8,0 16,-7.2 16,-16v-32c0,-8.8 -7.2,-16 -16,-16h-32c-8.8,0 -16,7.2 -16,16zM368,192c-8.8,0 -16,7.2 -16,16v32c0,8.8 7.2,16 16,16h32c8.8,0 16,-7.2 16,-16v-32c0,-8.8 -7.2,-16 -16,-16zM328,384c13.3,0 24.3,-10.9 21,-23.8c-10.6,-41.5 -48.2,-72.2 -93,-72.2c-44.8,0 -82.5,30.7 -93,72.2c-3.3,12.8 7.8,23.8 21,23.8z"></path></g></g></svg>