<svg version="1.1" xmlns="http://www.w3.org/2000/svg" xmlns:xlink="http://www.w3.org/1999/xlink" width="800px" height="800px" viewBox="0,0,256,256"><g fill="#1f9dac" fill-rule="evenodd" stroke="none" stroke-width="1" stroke-linecap="butt" stroke-linejoin="miter" stroke-miterlimit="10" stroke-dasharray="" stroke-dashoffset="0" font-family="none" font-weight="none" font-size="none" text-anchor="none" style="mix-blend-mode: normal"><g transform="scale(10.66667,10.66667)"><path d="M11,5c-1.10457,0 -2,0.89543 -2,2v2h-2c-1.10457,0 -2,0.89543 -2,2v2c0,1.1046 0.89543,2 2,2h2v2c0,1.1046 0.89543,2 2,2h2c1.1046,0 2,-0.8954 2,-2v-2h2c1.1046,0 2,-0.8954 2,-2v-2c0,-1.10457 -0.8954,-2 -2,-2h-2v-2c0,-1.10457 -0.8954,-2 -2,-2zM11,7h2v2.5c0,0.8284 0.6716,1.5 1.5,1.5h2.5v2h-2.5c-0.8284,0 -1.5,0.6716 -1.5,1.5v2.5h-2v-2.5c0,-0.8284 -0.6716,-1.5 -1.5,-1.5h-2.5v-2h2.5c0.8284,0 1.5,-0.6716 1.5,-1.5z"></path><path d="M20,1c1.6569,0 3,1.34315 3,3v16c0,1.6569 -1.3431,3 -3,3h-16c-1.65685,0 -3,-1.3431 -3,-3v-16c0,-1.65685 1.34315,-3 3,-3zM20,3c0.5523,0 1,0.44772 1,1v16c0,0.5523 -0.4477,1 -1,1h-16c-0.55228,0 -1,-0.4477 -1,-1v-16c0,-0.55228 0.44772,-1 1,-1z"></path></g></g></svg>