<svg version="1.1" xmlns="http://www.w3.org/2000/svg" xmlns:xlink="http://www.w3.org/1999/xlink" width="800px" height="800px" viewBox="0,0,256,256"><g fill="#1f9dac" fill-rule="nonzero" stroke="none" stroke-width="1" stroke-linecap="butt" stroke-linejoin="miter" stroke-miterlimit="10" stroke-dasharray="" stroke-dashoffset="0" font-family="none" font-weight="none" font-size="none" text-anchor="none" style="mix-blend-mode: normal"><g transform="translate(-0.01285,-0.00287) scale(10.66667,10.66667)"><g id="Route"><path d="M21.792,17.086c-0.58,-0.58 -1.16,-1.17 -1.75,-1.75c-0.08,-0.08 -0.16,-0.17 -0.25,-0.25c-0.09243,-0.09356 -0.21848,-0.14622 -0.35,-0.14622c-0.13152,0 -0.25757,0.05266 -0.35,0.14622c-0.09466,0.09388 -0.1479,0.22168 -0.1479,0.355c0,0.13332 0.05324,0.26112 0.1479,0.355l1.14,1.14h-10.95c-1.22607,0 -2.22,-0.99393 -2.22,-2.22c0,-1.22607 0.99393,-2.22 2.22,-2.22h3c1.7756,0 3.215,-1.4394 3.215,-3.215c0,-1.7756 -1.4394,-3.215 -3.215,-3.215h-5.27c-0.25668,-1.25748 -1.42385,-2.11633 -2.70076,-1.98734c-1.27691,0.12899 -2.24873,1.20393 -2.24873,2.48734c0,1.28341 0.97181,2.35835 2.24873,2.48734c1.27691,0.12899 2.44408,-0.72986 2.70076,-1.98734h5.27c1.22331,0 2.215,0.99169 2.215,2.215c0,1.22331 -0.99169,2.215 -2.215,2.215h-3c-1.77836,0 -3.22,1.44164 -3.22,3.22c0,1.77836 1.44164,3.22 3.22,3.22h10.96l-0.9,0.9c-0.09,0.08 -0.17,0.17 -0.25,0.25c-0.09466,0.09388 -0.1479,0.22168 -0.1479,0.355c0,0.13332 0.05324,0.26112 0.1479,0.355c0.1967,0.18491 0.5033,0.18491 0.7,0l1.75,-1.75l0.25,-0.25c0.09466,-0.09388 0.1479,-0.22168 0.1479,-0.355c0,-0.13332 -0.05324,-0.26112 -0.1479,-0.355zM4.562,8.066c-0.82843,0 -1.5,-0.67157 -1.5,-1.5c0,-0.82843 0.67157,-1.5 1.5,-1.5c0.82843,0 1.5,0.67157 1.5,1.5c0,0.82843 -0.67157,1.5 -1.5,1.5z"></path></g></g></g></svg>