<svg version="1.1" xmlns="http://www.w3.org/2000/svg" xmlns:xlink="http://www.w3.org/1999/xlink" width="800px" height="800px" viewBox="0,0,256,256"><g fill="#1f9dac" fill-rule="nonzero" stroke="none" stroke-width="1" stroke-linecap="butt" stroke-linejoin="miter" stroke-miterlimit="10" stroke-dasharray="" stroke-dashoffset="0" font-family="none" font-weight="none" font-size="none" text-anchor="none" style="mix-blend-mode: normal"><g transform="translate(0.4,-7.6) scale(8,8)"><path d="M31,20h-3h-24h-3c-0.3,0 -0.6,0.1 -0.8,0.3c-0.1,0.3 -0.2,0.6 -0.2,0.8l0.1,0.9c0.6,4 4,6.9 8,6.9h15.7c4,0 7.4,-3 8,-6.9l0.1,-0.9c0,-0.3 0,-0.6 -0.2,-0.8c-0.1,-0.2 -0.4,-0.3 -0.7,-0.3z"></path><path d="M26,10h-1.8l0.8,-3.8c0.1,-0.3 0,-0.6 -0.2,-0.8c-0.2,-0.3 -0.5,-0.4 -0.8,-0.4h-4c-0.5,0 -0.9,0.3 -1,0.8l-0.8,4.2h-2l0.8,-3.8c0.1,-0.3 0,-0.6 -0.2,-0.8c-0.2,-0.3 -0.5,-0.4 -0.8,-0.4h-4c-0.5,0 -0.9,0.3 -1,0.8l-0.8,4.2h-1.8c-1.2,0 -2.4,0.8 -2.8,1.9l-0.8,2.1h4.2c0.6,0 1,0.4 1,1c0,0.6 -0.4,1 -1,1h-4.9l-0.8,2h25.7v-5c0,-1.7 -1.3,-3 -3,-3zM12.7,15.7c-0.2,0.2 -0.4,0.3 -0.7,0.3c-0.1,0 -0.3,0 -0.4,-0.1c-0.1,-0.1 -0.2,-0.1 -0.3,-0.2c0,-0.1 -0.1,-0.1 -0.1,-0.1c0,-0.1 -0.1,-0.1 -0.1,-0.2c0,-0.1 0,-0.1 -0.1,-0.2c0,-0.1 0,-0.1 0,-0.2c0,-0.1 0,-0.3 0.1,-0.4c0,-0.1 0.1,-0.2 0.2,-0.3c0.1,-0.1 0.2,-0.2 0.3,-0.2c0.2,-0.1 0.4,-0.1 0.6,-0.1c0.1,0 0.1,0 0.2,0.1c0.1,0 0.1,0.1 0.2,0.1c0,0 0.1,0.1 0.2,0.1c0.1,0.1 0.2,0.2 0.2,0.3c0,0.1 0.1,0.3 0.1,0.4c-0.1,0.3 -0.2,0.5 -0.4,0.7zM15.7,15.7c-0.2,0.2 -0.4,0.3 -0.7,0.3c-0.1,0 -0.3,0 -0.4,-0.1c-0.1,-0.1 -0.2,-0.1 -0.3,-0.2c0,-0.1 -0.1,-0.1 -0.1,-0.1c0,-0.1 -0.1,-0.1 -0.1,-0.2c0,-0.1 0,-0.1 -0.1,-0.2c0,-0.1 0,-0.1 0,-0.2c0,-0.1 0,-0.3 0.1,-0.4c0,-0.1 0.1,-0.2 0.2,-0.3c0.1,-0.1 0.2,-0.2 0.3,-0.2c0.2,-0.1 0.4,-0.1 0.6,-0.1c0.1,0 0.1,0 0.2,0.1c0.1,0 0.1,0.1 0.2,0.1c0,0 0.1,0.1 0.2,0.1c0.1,0.1 0.2,0.2 0.2,0.3c0,0.1 0.1,0.3 0.1,0.4c-0.1,0.3 -0.2,0.5 -0.4,0.7zM18.7,15.7c-0.2,0.2 -0.4,0.3 -0.7,0.3c-0.1,0 -0.3,0 -0.4,-0.1c-0.1,-0.1 -0.2,-0.1 -0.3,-0.2c0,-0.1 -0.1,-0.1 -0.1,-0.1c0,-0.1 -0.1,-0.1 -0.1,-0.2c0,-0.1 0,-0.1 -0.1,-0.2c0,-0.1 0,-0.1 0,-0.2c0,-0.1 0,-0.3 0.1,-0.4c0,-0.1 0.1,-0.2 0.2,-0.3c0.1,-0.1 0.2,-0.2 0.3,-0.2c0.2,-0.1 0.4,-0.1 0.6,-0.1c0.1,0 0.1,0 0.2,0.1c0.1,0 0.1,0.1 0.2,0.1c0,0 0.1,0.1 0.2,0.1c0.1,0.1 0.2,0.2 0.2,0.3c0,0.1 0.1,0.3 0.1,0.4c-0.1,0.3 -0.2,0.5 -0.4,0.7z"></path></g></g></svg>