<svg version="1.1" xmlns="http://www.w3.org/2000/svg" xmlns:xlink="http://www.w3.org/1999/xlink" width="800px" height="800px" viewBox="0,0,256,256"><g fill="#1f9dac" fill-rule="nonzero" stroke="none" stroke-width="1" stroke-linecap="butt" stroke-linejoin="miter" stroke-miterlimit="10" stroke-dasharray="" stroke-dashoffset="0" font-family="none" font-weight="none" font-size="none" text-anchor="none" style="mix-blend-mode: normal"><g transform="translate(0,-2.66667) scale(10.66667,10.66667)"><g id="Layer_Grid" font-family="Inter, apple-system, BlinkMacSystemFont, &quot;Helvetica Neue&quot;, &quot;Segoe UI&quot;, &quot;Fira Sans&quot;, Roboto, Oxygen, Ubuntu, &quot;Droid Sans&quot;, Arial, sans-serif" font-weight="400" font-size="16" text-anchor="start"></g><g id="Layer_2"><path d="M19,17.4c-0.4,0 -0.6,-0.1 -0.9,-0.3c-0.4,-0.2 -0.9,-0.6 -1.9,-0.6c-1,0 -1.5,0.3 -1.9,0.6c-0.3,0.2 -0.5,0.3 -0.9,0.3c-0.4,0 -0.6,-0.1 -0.9,-0.3c-0.4,-0.2 -0.9,-0.6 -1.9,-0.6c-1,0 -1.5,0.3 -1.9,0.6c-0.3,0.2 -0.5,0.3 -0.9,0.3c-0.4,0 -0.6,-0.1 -0.9,-0.3c-0.4,-0.2 -0.9,-0.5 -1.9,-0.5c-0.6,0 -1,0.4 -1,1c0,0.6 0.4,1 1,1c0.4,0 0.6,0.1 0.9,0.3c0.4,0.2 0.9,0.6 1.9,0.6c1,0 1.5,-0.3 1.9,-0.6c0.3,-0.2 0.5,-0.3 0.9,-0.3c0.4,0 0.6,0.1 0.9,0.3c0.4,0.2 0.9,0.6 1.9,0.6c1,0 1.5,-0.3 1.9,-0.6c0.3,-0.2 0.5,-0.3 0.9,-0.3c0.4,0 0.6,0.1 0.9,0.3c0.4,0.2 0.9,0.6 1.9,0.6c0.6,0 1,-0.4 1,-1c0,-0.6 -0.4,-1.1 -1,-1.1z"></path><path d="M19,20.4c-0.4,0 -0.6,-0.1 -0.9,-0.3c-0.4,-0.2 -0.9,-0.6 -1.9,-0.6c-1,0 -1.5,0.3 -1.9,0.6c-0.3,0.2 -0.5,0.3 -0.9,0.3c-0.4,0 -0.6,-0.1 -0.9,-0.3c-0.4,-0.2 -0.9,-0.6 -1.9,-0.6c-1,0 -1.5,0.3 -1.9,0.6c-0.3,0.2 -0.5,0.3 -0.9,0.3c-0.4,0 -0.6,-0.1 -0.9,-0.3c-0.4,-0.2 -0.9,-0.5 -1.9,-0.5c-0.6,0 -1,0.4 -1,1c0,0.6 0.4,1 1,1c0.4,0 0.6,0.1 0.9,0.3c0.4,0.2 0.9,0.6 1.9,0.6c1,0 1.5,-0.3 1.9,-0.6c0.3,-0.2 0.5,-0.3 0.9,-0.3c0.4,0 0.6,0.1 0.9,0.3c0.4,0.2 0.9,0.6 1.9,0.6c1,0 1.5,-0.3 1.9,-0.6c0.3,-0.2 0.5,-0.3 0.9,-0.3c0.4,0 0.6,0.1 0.9,0.3c0.4,0.2 0.9,0.6 1.9,0.6c0.6,0 1,-0.4 1,-1c0,-0.6 -0.4,-1.1 -1,-1.1z"></path><path d="M17,2c-1.7,0 -3,1.3 -3,3v3h-5v-3c0,-0.6 0.4,-1 1,-1c0.6,0 1,0.4 1,1v1c0,0.6 0.4,1 1,1c0.6,0 1,-0.4 1,-1v-1c0,-1.7 -1.3,-3 -3,-3c-1.7,0 -3,1.3 -3,3v10c0,0.6 0.4,1 1,1c0.6,0 1,-0.4 1,-1v-1h5v1c0,0.6 0.4,1 1,1c0.6,0 1,-0.4 1,-1v-10c0,-0.6 0.4,-1 1,-1c0.6,0 1,0.4 1,1v1c0,0.6 0.4,1 1,1c0.6,0 1,-0.4 1,-1v-1c0,-1.7 -1.3,-3 -3,-3zM14,12h-5v-2h5z"></path></g></g></g></svg>