<svg version="1.1" xmlns="http://www.w3.org/2000/svg" xmlns:xlink="http://www.w3.org/1999/xlink" width="512px" height="512px" viewBox="0,0,256,256"><g fill="#1f9dac" fill-rule="nonzero" stroke="none" stroke-width="1" stroke-linecap="butt" stroke-linejoin="miter" stroke-miterlimit="10" stroke-dasharray="" stroke-dashoffset="0" font-family="none" font-weight="none" font-size="none" text-anchor="none" style="mix-blend-mode: normal"><g transform="translate(0,-0.00025) scale(0.5,0.5)"><g><rect x="249.943" y="28.269" width="9.755" height="95.565"></rect><path d="M310.46,42.905c-20.517,-12.864 -35.859,-13.853 -43.932,-13.031v51.029c24.99,-6.454 38.07,6.584 55.828,2.969c19.224,-3.897 33.869,-29.26 32.952,-33.164c-0.913,-3.905 -13.727,11.706 -44.848,-7.803z"></path><path d="M328.356,160.499h-16.96v-24.746h-25.97v24.746h-16.952v-24.746h-25.976v24.746h-16.951v-24.746h-25.971v24.746h-16.955v-24.746h-25.971v56.008h13.88h12.091h16.955h25.971h16.951h25.976h16.952h25.97h16.96h12.09h13.877v-56.008h-25.967z"></path><path d="M170.53,483.731h56.837v-57.391c0,-17.203 13.941,-31.14 31.136,-31.14c17.194,0 31.136,13.937 31.136,31.14v57.392h50.808v-277.66h-169.917zM276.611,261.066h20.121v34.877h-20.121zM209.544,261.066h20.118v34.877h-20.118z"></path><path d="M0,483.731h154.746v-181.532h-154.746zM67.315,341.552h20.118v34.877h-20.118z"></path><path d="M128.78,257.085h-16.956v-24.746h-25.971v24.746h-16.955v-24.746h-25.972v24.746h-16.954v-24.746h-25.972v24.746v31.254h25.972h16.954h25.972h16.955h25.971h16.956h12.091h13.875v-56h-25.966z"></path><path d="M357.254,483.731h154.746v-181.532h-154.746zM424.564,341.552h20.122v34.877h-20.122z"></path><path d="M486.029,232.339v24.746h-16.955v-24.746h-25.971v24.746h-16.955v-24.746h-25.968v24.746h-16.96v-24.746h-25.966v24.746v31.254h25.966h16.96h25.968h16.955h25.971h16.955h12.095h13.876v-56z"></path></g></g></g></svg>