<svg version="1.1" xmlns="http://www.w3.org/2000/svg" xmlns:xlink="http://www.w3.org/1999/xlink" width="800px" height="800px" viewBox="0,0,256,256"><g fill="#1f9dac" fill-rule="nonzero" stroke="none" stroke-width="1" stroke-linecap="butt" stroke-linejoin="miter" stroke-miterlimit="10" stroke-dasharray="" stroke-dashoffset="0" font-family="none" font-weight="none" font-size="none" text-anchor="none" style="mix-blend-mode: normal"><g transform="scale(10.66667,10.66667)"><path d="M22,12h-9v-1h5c0.55228,0 1,-0.44772 1,-1c0.1797,-3.54369 -2.46688,-6.59873 -6,-6.926v-0.074c0,-0.55228 -0.44772,-1 -1,-1c-0.55228,0 -1,0.44772 -1,1v9h-9c-0.55228,0 -1,0.44772 -1,1c0.00606,4.96805 4.03195,8.99394 9,9h4c4.96805,-0.00606 8.99394,-4.03195 9,-9c0,-0.55228 -0.44772,-1 -1,-1zM13,5.108c2.04264,0.2523 3.65739,1.85184 3.929,3.892h-3.929zM14,20h-4c-3.47824,-0.00433 -6.42743,-2.55811 -6.929,-6h17.858c-0.50157,3.44189 -3.45076,5.99567 -6.929,6z"></path></g></g></svg>