<svg version="1.1" xmlns="http://www.w3.org/2000/svg" xmlns:xlink="http://www.w3.org/1999/xlink" width="800px" height="800px" viewBox="0,0,256,256"><g fill="#1f9dac" fill-rule="nonzero" stroke="none" stroke-width="1" stroke-linecap="butt" stroke-linejoin="miter" stroke-miterlimit="10" stroke-dasharray="" stroke-dashoffset="0" font-family="none" font-weight="none" font-size="none" text-anchor="none" style="mix-blend-mode: normal"><g transform="translate(0.00011,-0.00016) scale(0.5,0.5)"><g><path d="M508.727,159.883c-14.908,-8.942 -74.31,45.732 -91.456,68.595c-57.163,-34.302 -108.602,-57.164 -108.602,-57.164c0,0 22.862,-100.025 -8.578,-94.318c-28.638,5.212 -81.664,42.558 -125.749,77.172c-74.309,20.008 -164.178,70.918 -174.342,120.033c28.577,94.318 191.489,140.042 288.66,160.05c47.831,9.852 20.009,-57.155 20.009,-57.155c0,0 51.439,-22.87 108.602,-57.163c17.147,22.862 76.548,77.536 91.456,68.594c14.293,-8.577 -22.862,-114.326 -22.862,-114.326c0,0 37.155,-105.74 22.862,-114.318zM101.69,279.265c-13.027,0 -23.582,-10.555 -23.582,-23.582c0,-13.018 10.555,-23.573 23.582,-23.573c13.018,0 23.573,10.555 23.573,23.573c0,13.027 -10.555,23.582 -23.573,23.582z"></path></g></g></g></svg>