<svg version="1.1" xmlns="http://www.w3.org/2000/svg" xmlns:xlink="http://www.w3.org/1999/xlink" width="800px" height="800px" viewBox="0,0,256,256"><g fill="#1f9dac" fill-rule="nonzero" stroke="none" stroke-width="1" stroke-linecap="butt" stroke-linejoin="miter" stroke-miterlimit="10" stroke-dasharray="" stroke-dashoffset="0" font-family="none" font-weight="none" font-size="none" text-anchor="none" style="mix-blend-mode: normal"><g transform="translate(0,-7.68015) scale(5.12,5.12)"><path d="M1,12c-0.55078,0 -1,0.44922 -1,1v3h50v-3c0,-0.55078 -0.44531,-1 -1,-1zM1,18c1.14063,0 2,0.85938 2,2v7c0,5.00781 3.35156,9.23438 7.9375,10.5625c-0.21484,0.87891 -0.94531,1.4375 -1.9375,1.4375c-0.35937,-0.00391 -0.69531,0.18359 -0.87891,0.49609c-0.17969,0.3125 -0.17969,0.69531 0,1.00781c0.18359,0.3125 0.51953,0.5 0.87891,0.49609c1.88672,0 3.45313,-1.30469 3.875,-3.0625c0.37109,0.03906 0.74609,0.0625 1.125,0.0625h22c0.37891,0 0.75391,-0.02344 1.125,-0.0625c0.42188,1.75781 1.98828,3.0625 3.875,3.0625c0.35938,0.00391 0.69531,-0.18359 0.87891,-0.49609c0.17969,-0.3125 0.17969,-0.69531 0,-1.00781c-0.18359,-0.3125 -0.51953,-0.5 -0.87891,-0.49609c-0.99219,0 -1.72266,-0.55859 -1.9375,-1.4375c4.58594,-1.32812 7.9375,-5.55469 7.9375,-10.5625v-7c0,-1.14062 0.85938,-2 2,-2z"></path></g></g></svg>