<svg version="1.1" xmlns="http://www.w3.org/2000/svg" xmlns:xlink="http://www.w3.org/1999/xlink" width="512px" height="512px" viewBox="0,0,256,256"><g fill="#ffffff" fill-rule="nonzero" stroke="none" stroke-width="1" stroke-linecap="butt" stroke-linejoin="miter" stroke-miterlimit="10" stroke-dasharray="" stroke-dashoffset="0" font-family="none" font-weight="none" font-size="none" text-anchor="none" style="mix-blend-mode: normal"><g transform="translate(0.98125,-0.98125) scale(0.5,0.5)"><path d="M441,58.9l12.1,12.1c9.4,9.4 9.4,24.6 0,33.9l-29.1,29.2l-46.1,-46.1l29.1,-29.1c9.4,-9.4 24.6,-9.4 33.9,0zM209.8,256.2l134.2,-134.3l46.1,46.1l-134.3,134.2c-2.9,2.9 -6.5,5 -10.4,6.1l-58.5,16.7l16.7,-58.5c1.1,-3.9 3.2,-7.5 6.1,-10.4zM373.1,25l-197.3,197.2c-8.7,8.7 -15,19.4 -18.3,31.1l-28.6,100c-2.4,8.4 -0.1,17.4 6.1,23.6c6.2,6.2 15.2,8.5 23.6,6.1l100,-28.6c11.8,-3.4 22.5,-9.7 31.1,-18.3l197.3,-197.2c28.1,-28.1 28.1,-73.7 0,-101.8l-12.1,-12.1c-28.1,-28.1 -73.7,-28.1 -101.8,0zM88,64c-48.6,0 -88,39.4 -88,88v272c0,48.6 39.4,88 88,88h272c48.6,0 88,-39.4 88,-88v-112c0,-13.3 -10.7,-24 -24,-24c-13.3,0 -24,10.7 -24,24v112c0,22.1 -17.9,40 -40,40h-272c-22.1,0 -40,-17.9 -40,-40v-272c0,-22.1 17.9,-40 40,-40h112c13.3,0 24,-10.7 24,-24c0,-13.3 -10.7,-24 -24,-24z"></path></g></g></svg>