<svg version="1.1" xmlns="http://www.w3.org/2000/svg" xmlns:xlink="http://www.w3.org/1999/xlink" width="640px" height="512px" viewBox="0,0,256,204.79688"><g fill="#1f9dac" fill-rule="nonzero" stroke="none" stroke-width="1" stroke-linecap="butt" stroke-linejoin="miter" stroke-miterlimit="10" stroke-dasharray="" stroke-dashoffset="0" font-family="none" font-weight="none" font-size="none" text-anchor="none" style="mix-blend-mode: normal"><g transform="translate(-0.05127,-0.00654) scale(0.4,0.4)"><path d="M320,376.4l0.1,-0.1l26.4,14.1l85.2,45.5l-16.5,-97.6l-4.8,-28.7l20.7,-20.5l70.1,-69.3l-96.1,-14.2l-29.3,-4.3l-12.9,-26.6l-42.8,-87.8l-0.1,0.3zM495.1,474.7c2,12 -3,24.2 -12.9,31.3c-9.9,7.1 -23,8 -33.8,2.3l-128.3,-68.5l-128.3,68.5c-10.8,5.7 -23.9,4.8 -33.8,-2.3c-9.9,-7.1 -14.9,-19.3 -12.9,-31.3l24.7,-145.7l-104.2,-103.1c-8.6,-8.5 -11.7,-21.2 -7.9,-32.7c3.8,-11.5 13.7,-19.9 25.7,-21.7l143.6,-21.2l64.4,-132.3c5.4,-11 16.5,-18 28.8,-18c12.3,0 23.4,7 28.8,18l64.3,132.3l143.6,21.2c12,1.8 22,10.2 25.7,21.7c3.7,11.5 0.7,24.2 -7.9,32.7l-104.2,103.1z"></path></g></g></svg>