<svg version="1.1" xmlns="http://www.w3.org/2000/svg" xmlns:xlink="http://www.w3.org/1999/xlink" width="800px" height="800px" viewBox="0,0,256,256"><g fill="#1f9dac" fill-rule="none" stroke="none" stroke-width="1" stroke-linecap="butt" stroke-linejoin="miter" stroke-miterlimit="10" stroke-dasharray="" stroke-dashoffset="0" font-family="none" font-weight="none" font-size="none" text-anchor="none" style="mix-blend-mode: normal"><g transform="translate(-9.31793,9.33339) scale(10.66667,10.66667)"><path d="M15.5562,14.5477l-0.4555,0.4795c0,0 -1.0826,1.1398 -4.0376,-1.9713c-2.95498,-3.11106 -1.8724,-4.25083 -1.8724,-4.25083l0.28682,-0.30196c0.70658,-0.74387 0.77318,-1.93814 0.15672,-2.81001l-1.26098,-1.78349c-0.76298,-1.07911 -2.2373,-1.22166 -3.11181,-0.30097l-1.5696,1.6525c-0.43362,0.45652 -0.7242,1.04831 -0.68896,1.7048c0.09015,1.67952 0.80782,5.29306 4.81247,9.50926c4.24674,4.471 8.23144,4.6487 9.86094,4.4879c0.5154,-0.0509 0.9636,-0.3288 1.3248,-0.7091l1.4206,-1.4956c0.9589,-1.0095 0.6885,-2.7402 -0.5384,-3.4464l-1.9105,-1.0997c-0.8056,-0.4637 -1.787,-0.3275 -2.4166,0.3354z" fill-rule="nonzero"></path><path d="M13.2595,1.87983c0.0662,-0.40889 0.4527,-0.68626 0.8616,-0.62007c0.0253,0.00485 0.1068,0.02007 0.1494,0.02957c0.0854,0.01901 0.2044,0.04826 0.3528,0.09149c0.2968,0.08644 0.7114,0.22885 1.209,0.45698c0.9963,0.45676 2.3221,1.25576 3.6979,2.63156c1.3758,1.3758 2.1748,2.70161 2.6315,3.69789c0.2282,0.49762 0.3706,0.91222 0.457,1.209c0.0432,0.14841 0.0725,0.26744 0.0915,0.35276c0.0095,0.04267 0.0165,0.07693 0.0213,0.10224l0.0058,0.0312c0.0661,0.40885 -0.2087,0.81145 -0.6176,0.87765c-0.4077,0.066 -0.7918,-0.2101 -0.8596,-0.617c-0.0021,-0.011 -0.0079,-0.0403 -0.014,-0.068c-0.0124,-0.0554 -0.0337,-0.14322 -0.0675,-0.25938c-0.0677,-0.23233 -0.1852,-0.57766 -0.3804,-1.00334c-0.3898,-0.85031 -1.0908,-2.02449 -2.3287,-3.26236c-1.2378,-1.23786 -2.412,-1.93885 -3.2623,-2.32868c-0.4257,-0.19516 -0.771,-0.31269 -1.0034,-0.38037c-0.1161,-0.03383 -0.2621,-0.06734 -0.3175,-0.07967c-0.407,-0.06783 -0.6928,-0.45375 -0.6268,-0.86147z" fill-rule="nonzero"></path><path d="M13.4857,5.3293c0.1138,-0.39828 0.5289,-0.6289 0.9272,-0.51511l-0.206,0.72115c0.206,-0.72115 0.206,-0.72115 0.206,-0.72115l0.0015,0.00042l0.0015,0.00044l0.0033,0.00097l0.0078,0.00232l0.0198,0.00616c0.015,0.00482 0.0339,0.0111 0.0563,0.01907c0.0449,0.01594 0.1043,0.0386 0.1771,0.0698c0.1457,0.06244 0.3447,0.15886 0.5893,0.30357c0.4894,0.28968 1.1576,0.77086 1.9426,1.55583c0.785,0.78498 1.2661,1.45316 1.5558,1.94263c0.1447,0.24451 0.2411,0.44357 0.3036,0.58926c0.0312,0.0728 0.0539,0.13216 0.0698,0.17707c0.008,0.02245 0.0142,0.04128 0.0191,0.05636l0.0061,0.01979l0.0023,0.00775l0.001,0.00333l0.0004,0.00154c0,0 0.0005,0.00144 -0.7207,0.20748l0.7212,-0.20604c0.1138,0.39827 -0.1169,0.81336 -0.5151,0.92716c-0.3949,0.1128 -0.8064,-0.1129 -0.9243,-0.50497l-0.0037,-0.01078c-0.0053,-0.01503 -0.0163,-0.04461 -0.0348,-0.08781c-0.037,-0.08634 -0.1041,-0.22757 -0.2157,-0.41616c-0.223,-0.37674 -0.6257,-0.94599 -1.3257,-1.64595c-0.6999,-0.69995 -1.2692,-1.10265 -1.6459,-1.32562c-0.1886,-0.11162 -0.3298,-0.17872 -0.4162,-0.21572c-0.0432,-0.01851 -0.0728,-0.02955 -0.0878,-0.03488l-0.0108,-0.00369c-0.392,-0.11788 -0.6178,-0.52933 -0.505,-0.92422z" fill-rule="evenodd"></path></g></g></svg>