<svg version="1.1" xmlns="http://www.w3.org/2000/svg" xmlns:xlink="http://www.w3.org/1999/xlink" width="384px" height="512px" viewBox="0,0,192,256"><g fill="#ffffff" fill-rule="nonzero" stroke="none" stroke-width="1" stroke-linecap="butt" stroke-linejoin="miter" stroke-miterlimit="10" stroke-dasharray="" stroke-dashoffset="0" font-family="none" font-weight="none" font-size="none" text-anchor="none" style="mix-blend-mode: normal"><g transform="scale(0.5,0.5)"><path d="M342.6,150.6c12.5,-12.5 12.5,-32.8 0,-45.3c-12.5,-12.5 -32.8,-12.5 -45.3,0l-105.3,105.4l-105.4,-105.3c-12.5,-12.5 -32.8,-12.5 -45.3,0c-12.5,12.5 -12.5,32.8 0,45.3l105.4,105.3l-105.3,105.4c-12.5,12.5 -12.5,32.8 0,45.3c12.5,12.5 32.8,12.5 45.3,0l105.3,-105.4l105.4,105.3c12.5,12.5 32.8,12.5 45.3,0c12.5,-12.5 12.5,-32.8 0,-45.3l-105.4,-105.3z"></path></g></g></svg>